<svg xmlns="http://www.w3.org/2000/svg" width="338.236" height="366.842" viewBox="0 0 338.236 366.842"><defs><style>.a{fill:#b97964;}.b{fill:#263238;}.c{fill:#014fef;}.d{opacity:0.3;}.e{fill:#a76755;}.f,.h,.j{fill:#fafafa;}.f{opacity:0.6;}.g{opacity:0.2;}.h{opacity:0.4;}.i{fill:#a24e3f;}.k{fill:#f4f5f7;}</style></defs><g transform="translate(-108.578 -81.702) rotate(3)"><g transform="translate(173.917 71.767)"><path class="a" d="M219.145,197.673l-1,1c-.2.295-.8.725-1,1-.417.549-.563,1.441-1,2-.885,1.017-2.044,2.1-3,3a54.325,54.325,0,0,1-6,5,55.305,55.305,0,0,1-7,4c-1.19.58-1.769,1.512-3,2h-3c-.285.092.315.929,0,1a8.1,8.1,0,0,1-2,0,10.074,10.074,0,0,1-4-1c-.861-.45-1.3-1.323-2-2-1.1-1.089-2.221-1.659-3-3a44.042,44.042,0,0,1-3-8c-1.6-4.8-3.327-8.984-4-14l5-1c.773,2.227,1.125,3.783,2,6s1.983,4.9,3,7a38.368,38.368,0,0,0,3,6,10.7,10.7,0,0,0,2,2c.2.163.761-.093,1,0h0l1-1c1.017-.488,2.024-.41,3-1a69.852,69.852,0,0,0,6-4,59.59,59.59,0,0,0,5-5c.793-.773,1.278-1.166,2-2,.356-.417.695-.583,1-1l1-1h0Z" transform="translate(-139.062 -66.44)"/><path class="b" d="M205.717,197.5l5,12-3,3-6-12Z" transform="translate(-138.634 -66.27)"/><path class="c" d="M220.687,186.677c-8.411-.112-16.786,10.736-17,11l6,16s15.258-12.3,16-17C226.46,191.785,226.016,186.749,220.687,186.677Z" transform="translate(-138.604 -66.445)"/><path class="d" d="M220.687,186.677c-8.411-.112-16.786,10.736-17,11l6,16s15.258-12.3,16-17C226.46,191.785,226.016,186.749,220.687,186.677Z" transform="translate(-138.604 -66.445)"/><path class="a" d="M180.2,185.776l-6-4-1,8s5.99,2.922,9,1v-2A4.554,4.554,0,0,0,180.2,185.776Z" transform="translate(-139.12 -66.543)"/><path class="a" d="M166.313,180.783l1,7,6,2,1-8Z" transform="translate(-139.23 -66.551)"/><path class="a" d="M292.208,184.857l9-2-6-6s-6.424,1.915-5,7Z" transform="translate(-137.125 -66.625)"/><path class="a" d="M305.131,181.895v-8l-11,3,7,6Z" transform="translate(-137.048 -66.662)"/><path class="a" d="M263.924,408.251h-9l-7-19,9-1Z" transform="translate(-137.842 -63.018)"/><path class="a" d="M351.534,366.823l-6,6-16-12,6-6Z" transform="translate(-136.451 -63.59)"/><path class="b" d="M343.322,371.682l5-9c.165-.3.682-.124,1,0l7,3a2.145,2.145,0,0,1,1,1,1.106,1.106,0,0,1,0,1c-1.7,2.909-2.915,4.3-5,8-1.282,2.278-4.23,6.857-6,10s-4.458,2.465-4,1a27.636,27.636,0,0,0,1-14C343.221,372.164,343.063,372.142,343.322,371.682Z" transform="translate(-136.239 -63.449)"/><path class="b" d="M253.122,405.949h11c.375.008-.1-.361,0,0l3,8c.114.387-.755,1.68-1,2s-.6.01-1,0c-3.57-.061-4.515,0-9,0h-16c-3.814,0-4.546-3.705-3-4,6.916-1.536,12.874-3.986,15-6C252.516,405.563,252.571,405.947,253.122,405.949Z" transform="translate(-138.039 -62.716)"/><path class="e" d="M247.924,389.251l4,10h8l-3-11Z" transform="translate(-137.841 -63.018)"/><path class="e" d="M335.534,354.823l-6,6,8,6,6-6Z" transform="translate(-136.451 -63.59)"/><path class="c" d="M212.539,189.869s-4.3,2.528,19,48l34-10c-4.923-13.334-7.457-22.17-10-52a109.059,109.059,0,0,0-15,3,119.814,119.814,0,0,0-15,5C219.193,186.594,212.539,189.869,212.539,189.869Z" transform="translate(-138.456 -66.636)"/><path class="d" d="M212.539,189.869s-4.3,2.528,19,48l34-10c-4.923-13.334-7.457-22.17-10-52a109.059,109.059,0,0,0-15,3,119.814,119.814,0,0,0-15,5C219.193,186.594,212.539,189.869,212.539,189.869Z" transform="translate(-138.456 -66.636)"/><path class="a" d="M233.326,162.1c.61,5.167,2.555,14.854,7,17,0,0,.011,5.091-9,8-9.916,3.2-6-3-6-3,4.994-3.051,3.156-7.542,1-11Z" transform="translate(-138.243 -66.867)"/><path class="a" d="M216.461,187.854c2.451-1.271,6.01-2.749,9-4a110.03,110.03,0,0,1,15-5c2.9-.793,5.529-1.583,8-2,.234.692-.281,2.529-2,5-5.441,4.516-17.447,10.214-26,10C216.718,190.46,215.993,189.349,216.461,187.854Z" transform="translate(-138.378 -66.621)"/><path class="b" d="M246.389,181.771a61.551,61.551,0,0,1-13,13,70.3,70.3,0,0,1-13-3C228.9,191.984,240.907,186.286,246.389,181.771Z" transform="translate(-138.306 -66.538)"/><path class="e" d="M230.292,167.026l-4,6a25.368,25.368,0,0,1,2,3c1.973-.966,4.478-3.722,4-6A11.9,11.9,0,0,0,230.292,167.026Z" transform="translate(-138.21 -66.793)"/><path class="a" d="M235.546,153.445c.509,8.513.743,12.138-3,17-5.624,7.3-15.949,6.218-19-2-2.736-7.374-2.862-20.647,5-25a11.023,11.023,0,0,1,11,0A12.3,12.3,0,0,1,235.546,153.445Z" transform="translate(-138.463 -67.213)"/><circle class="b" cx="15.703" cy="15.703" r="15.703" transform="translate(79.714 78.986) rotate(-77.19)"/><path class="c" d="M233.33,141.489c3.234,2.136,4.251,5.1,3,7s-4.756,2.136-8,0-5.251-6.1-4-8S230.086,139.353,233.33,141.489Z" transform="translate(-138.247 -67.256)"/><path class="f" d="M233.33,141.489c3.234,2.136,4.251,5.1,3,7s-4.756,2.136-8,0-5.251-6.1-4-8S230.086,139.353,233.33,141.489Z" transform="translate(-138.247 -67.256)"/><path class="b" d="M231.533,158.455c.844-1.953-2.631-6.834-2-9-1.688-1.576-18.383,3.068-17-1,1.322-3.905,5.48-8.166,15-6,10.171,2.319,11.139,10.193,10,13a56.245,56.245,0,0,1-3,6Z" transform="translate(-138.451 -67.222)"/><path class="a" d="M237.206,160.184a7.962,7.962,0,0,1-2,5c-1.536,1.556-2.522.014-3-2-.437-1.81-.973-5.207,1-6,.884-.344,2.233.442,3,1A2,2,0,0,1,237.206,160.184Z" transform="translate(-138.123 -66.952)"/><path class="c" d="M231.361,236.98s-14.584,75.235-6,100c8.93,25.762,23,62,23,62l14-1s-11.244-45.476-14-66c-3.773-28.294,12-104,12-104Z" transform="translate(-138.279 -65.747)"/><path class="f" d="M231.361,236.98s-14.584,75.235-6,100c8.93,25.762,23,62,23,62l14-1s-11.244-45.476-14-66c-3.773-28.294,12-104,12-104Z" transform="translate(-138.279 -65.747)"/><path class="c" d="M262.985,395.242l-16,1-2-6,17-2Z" transform="translate(-137.902 -63.01)"/><path class="g" d="M262.985,395.242l-16,1-2-6,17-2Z" transform="translate(-137.902 -63.01)"/><path class="c" d="M247.947,242.729c-2.36,8.726-.455,21.826,4,31,1.088-7.119,1.9-13.827,3-20C252.659,249.3,250.551,245.169,247.947,242.729Z" transform="translate(-137.865 -65.496)"/><path class="h" d="M247.947,242.729c-2.36,8.726-.455,21.826,4,31,1.088-7.119,1.9-13.827,3-20C252.659,249.3,250.551,245.169,247.947,242.729Z" transform="translate(-137.865 -65.496)"/><path class="c" d="M240.057,234.005s22.856,55,38,85c12.2,24.267,58,50,58,50l8-9s-33.559-29.544-42-46c-27.013-52.673-21.582-75.609-37-87Z" transform="translate(-137.974 -65.773)"/><path class="f" d="M240.057,234.005s22.856,55,38,85c12.2,24.267,58,50,58,50l8-9s-33.559-29.544-42-46c-27.013-52.673-21.582-75.609-37-87Z" transform="translate(-137.974 -65.773)"/><path class="c" d="M343.6,356.87l-11,12-7-4,13-13Z" transform="translate(-136.517 -63.637)"/><path class="g" d="M343.6,356.87l-11,12-7-4,13-13Z" transform="translate(-136.517 -63.637)"/><path class="b" d="M265.231,224.043l2,3c.193.193.386.878,0,1l-35,11c-.305.1-.919.153-1,0l-1-3c-.092-.2-.325-.888,0-1l34-11C264.448,223.97,265.057,223.894,265.231,224.043Z" transform="translate(-138.148 -65.81)"/><path class="c" d="M260.739,230.027l1-1c.183-.061.041.1,0,0l-1-4c0-.1-.827-.051-1,0h-1c-.173,0-.051.888,0,1l2,4C260.77,230.139,260.536,230.089,260.739,230.027Z" transform="translate(-137.656 -65.795)"/><path class="f" d="M260.739,230.027l1-1c.183-.061.041.1,0,0l-1-4c0-.1-.827-.051-1,0h-1c-.173,0-.051.888,0,1l2,4C260.77,230.139,260.536,230.089,260.739,230.027Z" transform="translate(-137.656 -65.795)"/><path class="c" d="M234.189,237.882h1c.173-.061,1.051.112,1,0l-2-4c-.051-.112.183-.061,0,0h-1c-.173.061-1.051-.112-1,0l2,4C234.24,237.994,234.006,237.933,234.189,237.882Z" transform="translate(-138.106 -65.65)"/><path class="f" d="M234.189,237.882h1c.173-.061,1.051.112,1,0l-2-4c-.051-.112.183-.061,0,0h-1c-.173.061-1.051-.112-1,0l2,4C234.24,237.994,234.006,237.933,234.189,237.882Z" transform="translate(-138.106 -65.65)"/><path class="c" d="M247.964,233.955h1c.183,0,.051-.888,0-1l-2-3c-.051-.112.173-.061,0,0h-1c-.173.051-.051-.1,0,0l1,4C247.068,234.075,247.82,234.02,247.964,233.955Z" transform="translate(-137.881 -65.722)"/><path class="f" d="M247.964,233.955h1c.183,0,.051-.888,0-1l-2-3c-.051-.112.173-.061,0,0h-1c-.173.051-.051-.1,0,0l1,4C247.068,234.075,247.82,234.02,247.964,233.955Z" transform="translate(-137.881 -65.722)"/><path class="b" d="M222.384,157.214c.081.681.447.949,0,1s-.919-.308-1-1-.447-1.949,0-2S222.3,156.522,222.384,157.214Z" transform="translate(-138.301 -66.981)"/><path class="b" d="M215.514,158.2c.092.692-.553.949-1,1s-.919-.319-1-1,.553-1.939,1-2S215.412,157.476,215.514,158.2Z" transform="translate(-138.431 -66.965)"/><path class="b" d="M214.528,156.2h-2S213.826,157.117,214.528,156.2Z" transform="translate(-138.445 -66.969)"/><path class="i" d="M217.482,158.163a21.115,21.115,0,0,1-2,5,1.979,1.979,0,0,0,2,0Z" transform="translate(-138.399 -66.93)"/><path class="b" d="M220.4,166.095c-.1,0,.015.1,0,0s-.111-.98,0-1c1.738-.173,3.11-.5,4-2,.022-.051-.052.019,0,0a7.716,7.716,0,0,1,1,0c.049.024-.017-.052,0,0s.025-.049,0,0A6.843,6.843,0,0,1,220.4,166.095Z" transform="translate(-138.315 -66.862)"/><path class="b" d="M223.4,154.265c-.1,0,.073.064,0,0a3.674,3.674,0,0,0-3-1c-.105.031.1.054,0,0s.028.106,0,0-.054.094,0,0-.105-.974,0-1a4.965,4.965,0,0,1,4,1,4.3,4.3,0,0,1,0,1c0,.109.078-.076,0,0A5.08,5.08,0,0,1,223.4,154.265Z" transform="translate(-138.318 -67.032)"/><path class="b" d="M211.561,154.278c-.06.014-.94.014-1,0-.2-.108-.1.2,0,0a3.864,3.864,0,0,1,3-2c.221-.024.973-.221,1,0,.014.108.067-.086,0,0s-.892-.013-1,0h0c-1.019.19-1.564,1.06-2,2C211.48,154.4,211.707,154.287,211.561,154.278Z" transform="translate(-138.478 -67.045)"/><path class="a" d="M260.826,183.763h1v1c.325.387.644.614,1,1,.7.783,1.217,1.268,2,2a66.674,66.674,0,0,0,5,5c1.724,1.306,4.153,1.874,6,3,.926.559,1.044,1.481,2,2l2,1h1c.173.081-.163-.061,0,0,.519.216,1.438.995,2,1,.517-.03.589-.685,1-1a10.253,10.253,0,0,0,3-4c.944-1.959,2.435-3.9,3-6,.629-2.142.592-4.805,1-7l4,1a39.791,39.791,0,0,1-2,14c-.435,1.3-.319,2.811-1,4a16.317,16.317,0,0,1-3,4,10.046,10.046,0,0,1-5,2,9.912,9.912,0,0,1-5,0c-.4-.112-.624-.858-1-1h-1l-2-1c-1.149-.519-1.891-.369-3-1a64.489,64.489,0,0,1-7-4,62.232,62.232,0,0,1-6-5c-.915-.875-1.135-2.044-2-3-.427-.488-1.593-.532-2-1v-1c-.214-.285-.715-.593-1-1Z" transform="translate(-137.743 -66.53)"/><path class="b" d="M268.742,188.7l-7,11-3-3,6-11Z" transform="translate(-137.659 -66.462)"/><path class="c" d="M254.9,175.869c3.661-.061,12,10,12,10l-8,14s-9.01-9.25-9-14C249.911,180.916,250.731,175.991,254.9,175.869Z" transform="translate(-137.818 -66.636)"/><path class="d" d="M254.9,175.869c3.661-.061,12,10,12,10l-8,14s-9.01-9.25-9-14C249.911,180.916,250.731,175.991,254.9,175.869Z" transform="translate(-137.818 -66.636)"/><path class="c" d="M341.344,375.52c-.283-.011.218.18,0,0-.208-.139-1.027-.751-1-1,.091-1.1,3.7-1.837,4-2,.068-.045-.068-.045,0,0s.019-.079,0,0c-.315,1.1-.983,2.664-2,3A8.164,8.164,0,0,1,341.344,375.52Zm2-3c-1.078.61-1.949,1.43-2,2-.017.113-.1.949,0,1,.194.188.743.082,1,0C342.9,375.357,342.866,373.964,343.344,372.52Z" transform="translate(-136.261 -63.287)"/><path class="c" d="M341.358,373.535c-.447.038-.623-.758-1-1-.252-.218-.157.294,0,0,.111-.3-.305-.908,0-1,1.18-.4,3.908.949,4,1,.067.036,0-.077,0,0s.061-.037,0,0A8.177,8.177,0,0,1,341.358,373.535Zm0-2a7.51,7.51,0,0,0-1,0c-.19.059.074.815,0,1-.1.244,0-.071,0,0a3.92,3.92,0,0,0,3,0C342.653,372.161,342.151,371.617,341.358,371.535Z" transform="translate(-136.275 -63.302)"/><path class="c" d="M248.954,406.958c-.712.06-1.39.37-2,0-.324-.238-1-.6-1-1-.024-.219.819-.874,1-1,.926-.631,4.319,1.685,5,2,.08.039.013-.088,0,0s.083-.018,0,0A16.245,16.245,0,0,1,248.954,406.958Zm-2-1c-.137-.012.121-.066,0,0-.063.043-.013-.075,0,0,.007.27-.217.84,0,1,.8.61,2.881.2,4,0A14.606,14.606,0,0,0,246.954,405.958Z" transform="translate(-137.871 -62.725)"/><path class="c" d="M251.922,406.991h0c-1.149-.468-4.132-2.034-4-3a1.45,1.45,0,0,1,1-1c2.034-.264,2.969,3.847,3,4,.017.074.055-.052,0,0C251.883,407.015,251.968,407,251.922,406.991Zm-3-3h0c-.214,0,.01-.1,0,0a4.438,4.438,0,0,0,2,3C250.668,406.117,250.143,403.991,248.922,403.991Z" transform="translate(-137.839 -62.759)"/><path class="b" d="M222.4,155.218h-2S221.7,156.133,222.4,155.218Z" transform="translate(-138.315 -66.985)"/><path class="c" d="M159.773,85.4c-1.8,2.258-12.118,5.732-20,5-2.716,17.819,7,38,7,38s20.491-2.518,21-11S159.773,85.4,159.773,85.4Z" transform="translate(-139.69 -68.172)"/><path class="h" d="M159.773,85.4c-1.8,2.258-12.118,5.732-20,5-2.716,17.819,7,38,7,38s20.491-2.518,21-11S159.773,85.4,159.773,85.4Z" transform="translate(-139.69 -68.172)"/><path class="c" d="M312.912,72.632c1.841,2.593,10.769,5.343,18,4,3.875,21.094-3,46-3,46s-18.851-1.921-20-12S312.912,72.632,312.912,72.632Z" transform="translate(-136.829 -68.399)"/><path class="h" d="M312.912,72.632c1.841,2.593,10.769,5.343,18,4,3.875,21.094-3,46-3,46s-18.851-1.921-20-12S312.912,72.632,312.912,72.632Z" transform="translate(-136.829 -68.399)"/><path class="c" d="M180.512,255.48h0c-.3.043-.761-.82-1-1s.04.3,0,0l-25-172c-.04-.306.808-.758,1-1s.693.03,1,0h0c.618-.084.916.382,1,1l24,171c.04.306.192.759,0,1S180.818,255.449,180.512,255.48Z" transform="translate(-139.429 -68.247)"/><path class="g" d="M180.512,255.48h0c-.3.043-.761-.82-1-1s.04.3,0,0l-25-172c-.04-.306.808-.758,1-1s.693.03,1,0h0c.618-.084.916.382,1,1l24,171c.04.306.192.759,0,1S180.818,255.449,180.512,255.48Z" transform="translate(-139.429 -68.247)"/><path class="c" d="M293.172,242.694h0c.306.04.758.192,1,0s-.03-.693,0-1l25-172c.044-.3-.821.24-1,0s.3-.957,0-1h0c-.306-.04-.758-.192-1,0s-.97.693-1,1l-24,171C292.087,241.311,292.556,242.6,293.172,242.694Z" transform="translate(-137.089 -68.461)"/><path class="g" d="M293.172,242.694h0c.306.04.758.192,1,0s-.03-.693,0-1l25-172c.044-.3-.821.24-1,0s.3-.957,0-1h0c-.306-.04-.758-.192-1,0s-.97.693-1,1l-24,171C292.087,241.311,292.556,242.6,293.172,242.694Z" transform="translate(-137.089 -68.461)"/><path class="c" d="M154.528,86.7l4,33a4.68,4.68,0,0,0,1,2c.364.237.584.123,1,0,10.232-2.929,67.6-18.3,155-9,.77.089.851-.24,1-1,1.648-8.523,4.278-32.786,5-39,.09-.815-.187-.894-1-1-11.737-1.485-91.355-10.962-165,13A1.993,1.993,0,0,0,154.528,86.7Z" transform="translate(-139.445 -68.467)"/><path class="f" d="M154.528,86.7l4,33a4.68,4.68,0,0,0,1,2c.364.237.584.123,1,0,10.232-2.929,67.6-18.3,155-9,.77.089.851-.24,1-1,1.648-8.523,4.278-32.786,5-39,.09-.815-.187-.894-1-1-11.737-1.485-91.355-10.962-165,13A1.993,1.993,0,0,0,154.528,86.7Z" transform="translate(-139.445 -68.467)"/><path class="j" d="M168.282,92.379l5-1,3,9,1-10,5-1,4,8v-9l5-1v17l-5,1-5-10-1,11-5,1Z" transform="translate(-139.199 -68.146)"/><path class="j" d="M193.857,87.416l13-2,1,3-9,2v2l8-1,1,3-8,2v3l9-1,1,3-14,2Z" transform="translate(-138.774 -68.183)"/><path class="j" d="M210.568,84.432h5l1,12,8-1v5l-13,1Z" transform="translate(-138.485 -68.199)"/><path class="j" d="M237.31,92.466l5,1c-.19,1.175-1.352,2-2,3a5.1,5.1,0,0,1-2,2,11.159,11.159,0,0,1-4,1c-1.512.161-2.556.476-4,0a7.76,7.76,0,0,1-3-3,9.888,9.888,0,0,1-2-5,7.745,7.745,0,0,1,2-6,8.634,8.634,0,0,1,6-3,8.348,8.348,0,0,1,5,1c1.348.9,2.475,1.469,3,3l-4,2c-.124-.392-.754-.671-1-1-.312-.369-.551-.822-1-1-1.511-.617-3.178-.411-4,1a8.953,8.953,0,0,0-1,4c.088,1.851.41,2.349,1,3a4.217,4.217,0,0,0,3,1,2.545,2.545,0,0,0,2-1A3.7,3.7,0,0,0,237.31,92.466Z" transform="translate(-138.227 -68.233)"/><path class="j" d="M243,90.482c-.161-2.363,1.433-5.224,3-7,1.68-1.654,3.643-2.055,6-2a7.552,7.552,0,0,1,6,2c1.6,1.664,3.116,3.693,3,6a11.1,11.1,0,0,1-1,5,7.589,7.589,0,0,1-3,3,10.756,10.756,0,0,1-5,1,7.936,7.936,0,0,1-4-1c-1.277-.587-2.291-.787-3-2C244.17,93.993,242.955,92.187,243,90.482Zm6,0a4,4,0,0,0,1,3c.644.728,1.032,1.088,2,1a4.052,4.052,0,0,0,3-1,6.617,6.617,0,0,0,1-4,3.536,3.536,0,0,0-4-4,4.153,4.153,0,0,0-3,1C248.288,87.58,248.874,89.177,249,90.482Z" transform="translate(-137.921 -68.249)"/><path class="j" d="M263.669,81.482h7l2,10,3-10h7l-1,17h-4v-13l-3,13h-4l-3-13v13h-5Z" transform="translate(-137.586 -68.249)"/><path class="j" d="M285.3,81.477l14,1v3h-9v3h8v3h-8v3l9,1-1,4-14-1Z" transform="translate(-137.219 -68.244)"/><rect class="k" width="330" height="166" transform="translate(-42.917 187.233)"/></g></g></svg>