<svg width="206" height="126" viewBox="0 0 206 126" fill="none" xmlns="http://www.w3.org/2000/svg">
<g clip-path="url(#clip0)">
<path d="M183 51.2472H138.542V116.683H183V51.2472Z" fill="#E6E6E6"/>
<path d="M180.626 54.7414H140.916V113.189H180.626V54.7414Z" fill="white"/>
<path d="M168.82 96.3305H166.897V102.891H168.82V96.3305Z" fill="#3F3D56"/>
<path opacity="0.8" d="M170.13 101.929L165.346 96.2577H156.031L150.339 101.724L150.454 101.797H150.413V113.168H170.077V101.797L170.13 101.929Z" fill="#0F0C3D"/>
<path d="M165.937 107.51H163.793V109.378H165.937V107.51Z" fill="#3F3D56"/>
<path d="M165.937 104.276H163.793V106.114H165.937V104.276Z" fill="#3F3D56"/>
<path d="M158.123 112.835C158.123 112.835 158.169 111.885 159.111 111.996L158.123 112.835Z" fill="#E6E6E6"/>
<path d="M157.858 111.931C158.119 111.931 158.33 111.723 158.33 111.466C158.33 111.21 158.119 111.001 157.858 111.001C157.598 111.001 157.387 111.21 157.387 111.466C157.387 111.723 157.598 111.931 157.858 111.931Z" fill="#6C63FF"/>
<path d="M157.913 112.249H157.78V113.168H157.913V112.249Z" fill="#E6E6E6"/>
<path d="M122.112 51.2472H77.6543V116.683H122.112V51.2472Z" fill="#E6E6E6"/>
<path d="M119.739 54.7414H80.0293V113.189H119.739V54.7414Z" fill="white"/>
<path d="M152.62 76.5049L153.764 75.6026C152.875 75.5059 152.51 75.9839 152.361 76.3622C151.884 76.2062 151.364 76.2378 150.91 76.4505L153.2 77.27C153.084 76.9659 152.883 76.7005 152.62 76.5049Z" fill="#0F0C3D"/>
<path d="M103.212 74.738L104.356 73.8356C103.467 73.7389 103.102 74.217 102.952 74.5953C102.475 74.4393 101.956 74.4709 101.502 74.6836L103.791 75.5031C103.676 75.1989 103.475 74.9335 103.212 74.738Z" fill="#0F0C3D"/>
<path d="M168.193 67.981L169.337 67.0787C168.449 66.982 168.083 67.46 167.934 67.8383C167.457 67.6823 166.937 67.7139 166.483 67.9266L168.773 68.7461C168.657 68.442 168.456 68.1766 168.193 67.981Z" fill="#0F0C3D"/>
<path d="M109.383 89.8512H107.461V96.4114H109.383V89.8512Z" fill="#3F3D56"/>
<path d="M109.383 89.1952H107.461V95.7554H109.383V89.1952Z" fill="#3F3D56"/>
<path opacity="0.8" d="M112.287 97.5623L105.726 89.879H92.8537L84.9873 97.4341L85.1461 97.5347H85.0893V113.249H112.265V97.5347L112.287 97.5623Z" fill="#0F0C3D"/>
<path d="M105.829 89.7784L97.7578 99.1083V113.249H112.265V97.3333L105.829 89.7784Z" fill="#0F0C3D"/>
<path d="M104.499 105.183H101.536V108.011H104.499V105.183Z" fill="#3F3D56"/>
<path d="M104.499 100.96H101.536V103.788H104.499V100.96Z" fill="#3F3D56"/>
<path d="M104.499 105.183H101.536V108.011H104.499V105.183Z" fill="white"/>
<path d="M104.499 100.96H101.536V103.788H104.499V100.96Z" fill="white"/>
<path d="M108.832 105.183H105.869V108.011H108.832V105.183Z" fill="#3F3D56"/>
<path d="M108.832 100.96H105.869V103.788H108.832V100.96Z" fill="#3F3D56"/>
<path d="M108.832 105.183H105.869V108.011H108.832V105.183Z" fill="white"/>
<path d="M108.832 100.96H105.869V103.788H108.832V100.96Z" fill="white"/>
<path d="M61.2252 51.2472H16.7676V116.683H61.2252V51.2472Z" fill="#E6E6E6"/>
<path d="M58.8504 54.7414H19.1406V113.189H58.8504V54.7414Z" fill="white"/>
<path opacity="0.8" d="M55.8272 93.9936L47.8209 84.5923H32.0804L22.4609 93.8307L22.6554 93.9538H22.586V113.17H55.816V93.9538L55.8272 93.9936Z" fill="#0F0C3D"/>
<path d="M46.0881 73.8617L47.1686 73.0096C46.3292 72.9183 45.9843 73.3697 45.8432 73.7269C45.3928 73.5796 44.9022 73.6095 44.4736 73.8103L46.6354 74.5841C46.5263 74.2969 46.3365 74.0463 46.0881 73.8617Z" fill="#0F0C3D"/>
<path d="M51.0092 83.712H49.1943V89.9063H51.0092V83.712Z" fill="#3F3D56"/>
<path d="M47.9453 84.4691L38.0762 95.8777V113.169H55.8156V93.7074L47.9453 84.4691Z" fill="#0F0C3D"/>
<path d="M30.0908 112.855C30.0908 112.855 30.1342 111.958 31.0238 112.062L30.0908 112.855Z" fill="#E6E6E6"/>
<path d="M29.8388 112.002C30.0847 112.002 30.284 111.805 30.284 111.563C30.284 111.32 30.0847 111.124 29.8388 111.124C29.5929 111.124 29.3936 111.32 29.3936 111.563C29.3936 111.805 29.5929 112.002 29.8388 112.002Z" fill="#62E2AA"/>
<path d="M29.8923 112.302H29.7666V113.169H29.8923V112.302Z" fill="#E6E6E6"/>
<path d="M34.0693 112.855C34.0693 112.855 34.1127 111.958 35.0023 112.062L34.0693 112.855Z" fill="#E6E6E6"/>
<path d="M33.8173 112.002C34.0632 112.002 34.2626 111.805 34.2626 111.563C34.2626 111.32 34.0632 111.124 33.8173 111.124C33.5714 111.124 33.3721 111.32 33.3721 111.563C33.3721 111.805 33.5714 112.002 33.8173 112.002Z" fill="#62E2AA"/>
<path d="M33.8708 112.302H33.7451V113.169H33.8708V112.302Z" fill="#E6E6E6"/>
<path d="M24.6455 112.855C24.6455 112.855 24.6889 111.958 25.5785 112.062L24.6455 112.855Z" fill="#E6E6E6"/>
<path d="M24.3945 112.002C24.6404 112.002 24.8397 111.805 24.8397 111.563C24.8397 111.32 24.6404 111.124 24.3945 111.124C24.1486 111.124 23.9492 111.32 23.9492 111.563C23.9492 111.805 24.1486 112.002 24.3945 112.002Z" fill="#62E2AA"/>
<path d="M24.447 112.302H24.3213V113.169H24.447V112.302Z" fill="#E6E6E6"/>
<path d="M43.9793 98.1418H40.3564V101.794H43.9793V98.1418Z" fill="#3F3D56"/>
<path d="M43.9793 103.112H40.3564V106.764H43.9793V103.112Z" fill="#3F3D56"/>
<path d="M43.9793 98.1418H40.3564V101.794H43.9793V98.1418Z" fill="white"/>
<path d="M43.9793 103.112H40.3564V106.764H43.9793V103.112Z" fill="white"/>
<path d="M48.991 98.1418H45.3682V101.794H48.991V98.1418Z" fill="#3F3D56"/>
<path d="M48.991 103.112H45.3682V106.764H48.991V103.112Z" fill="#3F3D56"/>
<path d="M48.991 98.1418H45.3682V101.794H48.991V98.1418Z" fill="white"/>
<path d="M48.991 103.112H45.3682V106.764H48.991V103.112Z" fill="white"/>
<path d="M53.9998 98.1418H50.377V101.794H53.9998V98.1418Z" fill="#3F3D56"/>
<path d="M53.9998 103.112H50.377V106.764H53.9998V103.112Z" fill="#3F3D56"/>
<path d="M53.9998 98.1418H50.377V101.794H53.9998V98.1418Z" fill="white"/>
<path d="M53.9998 103.112H50.377V106.764H53.9998V103.112Z" fill="white"/>
<path d="M182.62 117.016H16.835C16.835 117.016 50.495 109.024 100.072 109.115C100.351 109.115 100.629 109.116 100.907 109.117C101.896 109.121 102.891 109.127 103.891 109.137C104.674 109.145 105.461 109.156 106.25 109.168C106.591 109.172 106.932 109.178 107.275 109.184C107.413 109.187 107.548 109.189 107.683 109.191C107.998 109.197 108.314 109.203 108.632 109.21C109.229 109.222 109.827 109.235 110.427 109.25C110.953 109.263 111.482 109.277 112.013 109.293C112.215 109.297 112.42 109.303 112.624 109.31C113.587 109.337 114.553 109.369 115.523 109.404C115.748 109.413 115.972 109.421 116.199 109.429C116.51 109.44 116.822 109.453 117.133 109.465C117.545 109.481 117.956 109.498 118.368 109.515C118.903 109.538 119.437 109.561 119.972 109.586C121.093 109.636 122.22 109.692 123.353 109.753C124.195 109.797 125.04 109.844 125.887 109.894C126.247 109.916 126.609 109.938 126.971 109.96C127.526 109.993 128.082 110.028 128.639 110.065C128.993 110.089 129.35 110.112 129.704 110.136C130.133 110.164 130.56 110.193 130.988 110.224C131.415 110.255 131.846 110.285 132.275 110.317C132.705 110.349 133.136 110.381 133.567 110.414C133.999 110.447 134.43 110.48 134.862 110.515C135.289 110.548 135.716 110.583 136.145 110.619C137.97 110.768 139.809 110.931 141.661 111.107C142.016 111.14 142.374 111.174 142.731 111.21C143.098 111.245 143.467 111.281 143.838 111.319C144.352 111.37 144.869 111.422 145.387 111.477C145.831 111.523 146.276 111.57 146.721 111.617C147.123 111.659 147.529 111.703 147.933 111.748L148.059 111.762C148.504 111.81 148.952 111.861 149.398 111.911C149.846 111.962 150.296 112.014 150.743 112.066C151.193 112.118 151.643 112.171 152.093 112.225C152.544 112.279 152.994 112.333 153.446 112.388C153.798 112.432 154.149 112.476 154.501 112.519C154.677 112.541 154.852 112.563 155.027 112.585C155.404 112.633 155.783 112.682 156.163 112.731C156.616 112.79 157.071 112.849 157.525 112.909C157.577 112.916 157.626 112.923 157.678 112.929C158.383 113.023 159.089 113.119 159.795 113.216C159.89 113.229 159.987 113.243 160.085 113.256C160.454 113.307 160.824 113.359 161.194 113.412C161.563 113.465 161.933 113.517 162.305 113.571C162.32 113.572 162.335 113.574 162.35 113.577C162.874 113.652 163.396 113.728 163.922 113.807C164.183 113.845 164.445 113.884 164.706 113.924C165.064 113.977 165.42 114.031 165.778 114.086C166.013 114.123 166.247 114.159 166.483 114.196C166.657 114.221 166.83 114.248 167.004 114.276C167.37 114.331 167.736 114.389 168.103 114.448C168.444 114.502 168.785 114.557 169.127 114.612C169.136 114.613 169.146 114.614 169.155 114.616C169.237 114.629 169.317 114.642 169.399 114.655C169.649 114.695 169.898 114.736 170.15 114.778C170.407 114.82 170.666 114.862 170.925 114.906C171.152 114.944 171.381 114.981 171.608 115.02C171.614 115.02 171.62 115.021 171.627 115.023C171.659 115.027 171.691 115.033 171.724 115.039C171.987 115.083 172.25 115.126 172.513 115.172C172.776 115.217 173.039 115.262 173.304 115.308C173.33 115.311 173.357 115.316 173.384 115.321C173.587 115.355 173.791 115.39 173.995 115.427C173.995 115.427 173.995 115.425 173.997 115.427C174.113 115.445 174.23 115.467 174.346 115.487C174.657 115.541 174.967 115.595 175.278 115.65C175.478 115.686 175.68 115.721 175.88 115.757C176.438 115.857 176.998 115.958 177.559 116.06C178.119 116.162 178.681 116.266 179.241 116.371C179.579 116.433 179.914 116.497 180.251 116.562C180.568 116.621 180.884 116.681 181.2 116.742C181.673 116.833 182.147 116.923 182.62 117.016Z" fill="#E6E6E6"/>
<path d="M182.57 117.267C182.15 117.184 181.728 117.103 181.307 117.022L181.152 116.993C180.836 116.931 180.52 116.871 180.204 116.813C179.866 116.748 179.531 116.684 179.195 116.622C178.634 116.517 178.073 116.413 177.512 116.311C177.022 116.221 176.532 116.133 176.042 116.046L175.835 116.009C175.664 115.977 175.492 115.947 175.321 115.917L175.233 115.902C174.951 115.851 174.668 115.802 174.386 115.753L174.255 115.73V115.733L173.95 115.678L173.933 115.675L173.904 115.67C173.716 115.636 173.529 115.604 173.341 115.572C173.314 115.568 173.293 115.564 173.271 115.561L172.47 115.424C172.219 115.38 171.969 115.339 171.719 115.297L171.682 115.291C171.649 115.285 171.619 115.279 171.59 115.275C171.364 115.238 171.163 115.204 170.962 115.171L169.086 114.864C168.745 114.808 168.404 114.754 168.063 114.7C167.696 114.641 167.33 114.584 166.966 114.528C166.791 114.5 166.619 114.473 166.448 114.449L165.739 114.339C165.382 114.283 165.026 114.229 164.668 114.176C164.407 114.136 164.146 114.098 163.886 114.06C163.359 113.981 162.837 113.904 162.314 113.829L162.268 113.823C162.029 113.789 161.792 113.754 161.555 113.721L161.157 113.664C160.788 113.611 160.419 113.56 160.05 113.509L159.761 113.469C159.053 113.371 158.348 113.276 157.644 113.182C157.604 113.177 157.561 113.171 157.516 113.165L153.414 112.642C152.963 112.587 152.514 112.532 152.062 112.478C151.613 112.424 151.164 112.371 150.714 112.319C150.267 112.268 149.817 112.216 149.37 112.165C148.924 112.115 148.477 112.064 148.031 112.016L147.904 112.001C147.501 111.957 147.096 111.913 146.694 111.871C146.277 111.826 145.861 111.782 145.447 111.74L145.361 111.731C144.843 111.677 144.327 111.624 143.813 111.573C143.443 111.536 143.074 111.499 142.706 111.464C142.35 111.428 141.992 111.394 141.638 111.361C139.826 111.189 137.971 111.024 136.124 110.873C135.688 110.837 135.265 110.802 134.843 110.769C134.41 110.734 133.98 110.701 133.548 110.668C133.117 110.635 132.687 110.603 132.256 110.572C131.872 110.543 131.487 110.516 131.104 110.488L130.971 110.479C130.542 110.448 130.116 110.419 129.688 110.391L128.622 110.32C128.067 110.283 127.511 110.249 126.957 110.215L126.86 110.209C126.53 110.189 126.201 110.169 125.873 110.149C125.026 110.1 124.181 110.053 123.34 110.008C122.208 109.947 121.082 109.891 119.961 109.841C119.426 109.816 118.893 109.793 118.358 109.77C117.984 109.754 117.611 109.739 117.238 109.724L116.808 109.707C116.603 109.699 116.396 109.691 116.191 109.684L115.514 109.66C114.545 109.624 113.58 109.593 112.618 109.565C112.413 109.558 112.209 109.552 112.008 109.548C111.475 109.533 110.947 109.518 110.422 109.505C109.822 109.491 109.224 109.478 108.628 109.465L107.272 109.44C106.929 109.434 106.588 109.428 106.248 109.423C105.457 109.41 104.672 109.401 103.889 109.393C102.889 109.382 101.895 109.375 100.907 109.372L100.831 109.372C100.578 109.371 100.326 109.37 100.073 109.37C99.7984 109.37 99.521 109.369 99.2468 109.369C50.7112 109.369 17.231 117.185 16.8967 117.264L16.7754 116.768C17.1104 116.688 50.6555 108.859 99.2468 108.859C99.5243 108.859 99.7954 108.859 100.074 108.859C100.327 108.859 100.58 108.86 100.833 108.861L100.909 108.862C101.898 108.865 102.894 108.872 103.895 108.882C104.679 108.89 105.464 108.9 106.256 108.912C106.596 108.917 106.938 108.923 107.281 108.929L108.639 108.955C109.235 108.967 109.834 108.98 110.434 108.995C110.961 109.008 111.49 109.022 112.021 109.037C112.223 109.042 112.429 109.048 112.635 109.055C113.596 109.082 114.562 109.113 115.533 109.149L116.21 109.174C116.415 109.181 116.622 109.189 116.829 109.197L117.259 109.214C117.633 109.229 118.006 109.244 118.38 109.26C118.916 109.282 119.449 109.306 119.985 109.331C121.106 109.381 122.234 109.437 123.368 109.498C124.21 109.542 125.055 109.589 125.903 109.639C126.232 109.659 126.562 109.679 126.892 109.699L126.989 109.705C127.543 109.738 128.099 109.773 128.657 109.81L129.723 109.881C130.151 109.909 130.579 109.939 131.008 109.969L131.141 109.979C131.525 110.006 131.911 110.034 132.295 110.062C132.726 110.094 133.157 110.126 133.588 110.159C134.021 110.192 134.452 110.225 134.885 110.26C135.307 110.293 135.73 110.327 136.155 110.363C138.016 110.515 139.873 110.68 141.688 110.853C142.042 110.886 142.401 110.92 142.757 110.956C143.125 110.991 143.495 111.027 143.865 111.065C144.379 111.116 144.896 111.168 145.415 111.223L145.501 111.232C145.917 111.275 146.333 111.319 146.75 111.363C147.152 111.406 147.558 111.449 147.963 111.494L148.089 111.508C148.534 111.557 148.982 111.607 149.429 111.658C149.876 111.708 150.326 111.76 150.775 111.812C151.225 111.864 151.675 111.917 152.125 111.971C152.577 112.025 153.027 112.08 153.479 112.135L157.588 112.66C157.629 112.665 157.668 112.671 157.708 112.675C158.419 112.77 159.125 112.865 159.832 112.963L160.12 113.003C160.492 113.054 160.862 113.106 161.232 113.159L161.629 113.216C161.867 113.249 162.105 113.284 162.344 113.318C162.35 113.32 162.37 113.321 162.392 113.324C162.913 113.399 163.437 113.476 163.962 113.555C164.223 113.592 164.484 113.631 164.746 113.672C165.104 113.724 165.461 113.779 165.819 113.834L166.525 113.944C166.697 113.968 166.872 113.995 167.047 114.024C167.411 114.079 167.777 114.136 168.146 114.196C168.487 114.25 168.828 114.305 169.17 114.36C169.186 114.362 169.203 114.365 169.219 114.369L171.048 114.667C171.242 114.699 171.437 114.732 171.631 114.765L171.679 114.772C171.701 114.775 171.736 114.781 171.772 114.788L171.805 114.793C172.057 114.835 172.308 114.877 172.559 114.921L173.349 115.056C173.368 115.058 173.398 115.063 173.428 115.069C173.602 115.098 173.777 115.128 173.951 115.159L174.004 115.13L174.091 115.183C174.151 115.193 174.211 115.203 174.271 115.214L174.477 115.25C174.759 115.299 175.042 115.349 175.325 115.399L175.412 115.414C175.584 115.445 175.757 115.475 175.928 115.506L176.135 115.543C176.625 115.631 177.115 115.72 177.607 115.809C178.167 115.911 178.73 116.015 179.291 116.12C179.628 116.182 179.964 116.246 180.302 116.311C180.617 116.37 180.934 116.43 181.251 116.491L181.406 116.521C181.828 116.602 182.251 116.683 182.671 116.766L182.57 117.267Z" fill="#0F0C3D"/>
<path d="M84.2451 114.534C84.2451 114.534 84.3276 112.83 86.0183 113.029L84.2451 114.534Z" fill="#0F0C3D"/>
<path d="M83.768 112.913C84.2353 112.913 84.6142 112.539 84.6142 112.079C84.6142 111.618 84.2353 111.244 83.768 111.244C83.3007 111.244 82.9219 111.618 82.9219 112.079C82.9219 112.539 83.3007 112.913 83.768 112.913Z" fill="#62E2AA"/>
<path d="M83.8687 113.484H83.6299V115.132H83.8687V113.484Z" fill="#0F0C3D"/>
<path d="M115.057 114.888C115.057 114.888 115.139 113.184 116.83 113.382L115.057 114.888Z" fill="#0F0C3D"/>
<path d="M114.579 113.266C115.046 113.266 115.425 112.893 115.425 112.432C115.425 111.971 115.046 111.598 114.579 111.598C114.111 111.598 113.732 111.971 113.732 112.432C113.732 112.893 114.111 113.266 114.579 113.266Z" fill="#62E2AA"/>
<path d="M114.68 113.837H114.441V115.485H114.68V113.837Z" fill="#0F0C3D"/>
<path d="M64.3008 111.944C64.3008 111.944 64.3833 110.24 66.0739 110.438L64.3008 111.944Z" fill="#0F0C3D"/>
<path d="M63.8227 110.322C64.2901 110.322 64.6689 109.949 64.6689 109.488C64.6689 109.027 64.2901 108.654 63.8227 108.654C63.3554 108.654 62.9766 109.027 62.9766 109.488C62.9766 109.949 63.3554 110.322 63.8227 110.322Z" fill="#62E2AA"/>
<path d="M63.9234 110.893H63.6846V112.541H63.9234V110.893Z" fill="#0F0C3D"/>
<path d="M77.3184 109.706C77.3184 109.706 77.4008 108.002 79.0915 108.201L77.3184 109.706Z" fill="#0F0C3D"/>
<path d="M76.8403 108.085C77.3076 108.085 77.6865 107.711 77.6865 107.251C77.6865 106.79 77.3076 106.416 76.8403 106.416C76.373 106.416 75.9941 106.79 75.9941 107.251C75.9941 107.711 76.373 108.085 76.8403 108.085Z" fill="#62E2AA"/>
<path d="M76.941 108.656H76.7021V110.304H76.941V108.656Z" fill="#0F0C3D"/>
<path d="M109.922 112.886C109.922 112.886 110.004 111.182 111.695 111.38L109.922 112.886Z" fill="#0F0C3D"/>
<path d="M109.444 111.264C109.911 111.264 110.29 110.891 110.29 110.43C110.29 109.969 109.911 109.596 109.444 109.596C108.977 109.596 108.598 109.969 108.598 110.43C108.598 110.891 108.977 111.264 109.444 111.264Z" fill="#62E2AA"/>
<path d="M45 22.3504C45 26.9621 38 40 38 40C38 40 31 26.9621 31 22.3504C31 20.1357 31.7375 18.0118 33.0503 16.4458C34.363 14.8798 36.1435 14 38 14C39.8565 14 41.637 14.8798 42.9497 16.4458C44.2625 18.0118 45 20.1357 45 22.3504Z" fill="#2E48DA"/>
<path d="M38 25C40.2091 25 42 23.2091 42 21C42 18.7909 40.2091 17 38 17C35.7909 17 34 18.7909 34 21C34 23.2091 35.7909 25 38 25Z" fill="white"/>
<path d="M109.545 111.835H109.307V113.484H109.545V111.835Z" fill="#0F0C3D"/>
<path d="M86.2327 40.6473L87.3321 39.7803C86.478 39.6874 86.1271 40.1467 85.9834 40.5102C85.5252 40.3603 85.0259 40.3907 84.5898 40.5951L86.7895 41.3825C86.6786 41.0902 86.4854 40.8352 86.2327 40.6473Z" fill="#0F0C3D"/>
<path d="M102.952 49.4791L104.052 48.6121C103.198 48.5191 102.847 48.9784 102.703 49.342C102.245 49.192 101.746 49.2224 101.31 49.4268L103.509 50.2142C103.398 49.9219 103.205 49.6669 102.952 49.4791Z" fill="#0F0C3D"/>
<path d="M84.9182 57.0154L86.0177 56.1484C85.1636 56.0555 84.8126 56.5148 84.669 56.8783C84.2108 56.7284 83.7115 56.7588 83.2754 56.9632L85.4751 57.7506C85.3641 57.4583 85.171 57.2033 84.9182 57.0154Z" fill="#0F0C3D"/>
<path d="M130.692 91.0093C138.676 91.0093 145.149 77.7996 145.149 61.5046C145.149 45.2097 138.676 32 130.692 32C122.708 32 116.235 45.2097 116.235 61.5046C116.235 77.7996 122.708 91.0093 130.692 91.0093Z" fill="#62E2AA"/>
<path d="M129.004 109.74C134.784 75.0513 129.062 40.4889 129.004 40.1439L128.583 40.2152C128.641 40.5596 134.351 75.054 128.583 109.67L129.004 109.74Z" fill="#0F0C3D"/>
<path d="M117.796 55.4756L117.595 55.8521L130.668 62.8464L130.869 62.4699L117.796 55.4756Z" fill="#0F0C3D"/>
<path d="M144.464 58.9794L131.393 65.9771L131.594 66.3535L144.665 59.3558L144.464 58.9794Z" fill="#0F0C3D"/>
<path d="M165.42 96.1846L159.58 102.936V113.168H170.078V101.651L165.42 96.1846Z" fill="#0F0C3D"/>
<path d="M165.937 107.51H163.793V109.378H165.937V107.51Z" fill="white"/>
<path d="M165.937 104.276H163.793V106.114H165.937V104.276Z" fill="white"/>
</g>
<defs>
<clipPath id="clip0">
<rect width="206" height="126" fill="white"/>
</clipPath>
</defs>
</svg>
