<svg width="338" height="269" viewBox="0 0 338 269" fill="none" xmlns="http://www.w3.org/2000/svg">
<g clip-path="url(#clip0)">
<path d="M16.5999 268.613C19.5227 268.613 21.892 266.248 21.892 263.329C21.892 260.411 19.5227 258.045 16.5999 258.045C13.6772 258.045 11.3079 260.411 11.3079 263.329C11.3079 266.248 13.6772 268.613 16.5999 268.613Z" fill="#62E2AA"/>
<path d="M103.139 254.438H89.2183V268.338H103.139V254.438Z" fill="#2E48DA"/>
<path d="M89.2986 269C92.2214 269 94.5907 266.634 94.5907 263.716C94.5907 260.797 92.2214 258.432 89.2986 258.432C86.3759 258.432 84.0066 260.797 84.0066 263.716C84.0066 266.634 86.3759 269 89.2986 269Z" fill="#62E2AA"/>
<path d="M91.5466 0L60.4543 48.4627L127.251 22.8394L91.5466 0Z" fill="#F1F1F1"/>
<path d="M129.843 26.2227L58.6365 53.5376L0 144.933L192.11 267.822L283.891 124.764L129.843 26.2227Z" fill="#F1F1F1"/>
<path d="M3.01929 268.449H335.782" stroke="#3F3D56" stroke-width="2" stroke-miterlimit="10"/>
<path d="M136.532 107.434H1.18848V197.015H136.532V107.434Z" fill="#0F0C3D"/>
<path d="M121.064 146.891H16.6562V149.98H121.064V146.891Z" fill="#F1F1F1"/>
<path d="M121.064 157.316H16.6562V160.405H121.064V157.316Z" fill="#F1F1F1"/>
<path d="M121.064 167.74H16.6562V170.829H121.064V167.74Z" fill="#F1F1F1"/>
<path d="M43.8148 119.998H16.5017V123.086H43.8148V119.998Z" fill="#F1F1F1"/>
<path d="M82.5084 183.125H55.1953V186.213H82.5084V183.125Z" fill="#F1F1F1"/>
<path d="M74.5421 119.998H47.229V123.086H74.5421V119.998Z" fill="#F1F1F1"/>
<path d="M105.269 119.998H77.9563V123.086H105.269V119.998Z" fill="#F1F1F1"/>
<path d="M244.584 260.897C253.729 260.897 261.143 245.779 261.143 227.13C261.143 208.481 253.729 193.363 244.584 193.363C235.439 193.363 228.026 208.481 228.026 227.13C228.026 245.779 235.439 260.897 244.584 260.897Z" fill="#0F0C3D"/>
<path d="M246.113 282.401C239.482 242.634 246.047 203.011 246.114 202.615L247.404 202.834C247.337 203.227 240.81 242.642 247.404 282.187L246.113 282.401Z" fill="#62E2AA"/>
<path d="M259.162 219.869L244.189 227.873L244.806 229.026L259.779 221.022L259.162 219.869Z" fill="#62E2AA"/>
<path d="M229.004 223.88L228.386 225.033L243.358 233.042L243.975 231.889L229.004 223.88Z" fill="#62E2AA"/>
<path d="M204.8 241.098C222.686 241.098 237.186 211.529 237.186 175.054C237.186 138.579 222.686 109.01 204.8 109.01C186.914 109.01 172.414 138.579 172.414 175.054C172.414 211.529 186.914 241.098 204.8 241.098Z" fill="#62E2AA"/>
<path d="M208.407 283.054C195.454 205.376 208.277 127.982 208.408 127.209L209.698 127.427C209.567 128.198 196.782 205.385 209.698 282.839L208.407 283.054Z" fill="#0F0C3D"/>
<path d="M233.608 161.404L204.322 177.061L204.939 178.214L234.225 162.558L233.608 161.404Z" fill="#0F0C3D"/>
<path d="M174.031 169.245L173.414 170.398L202.696 186.063L203.313 184.91L174.031 169.245Z" fill="#0F0C3D"/>
<path d="M281.503 225.679C305.979 225.679 325.821 185.217 325.821 135.304C325.821 85.3904 305.979 44.9277 281.503 44.9277C257.027 44.9277 237.186 85.3904 237.186 135.304C237.186 185.217 257.027 225.679 281.503 225.679Z" fill="#62E2AA"/>
<path d="M286.678 283.054C268.958 176.798 286.499 70.9299 286.678 69.873L287.968 70.0914C287.789 71.1464 270.286 176.807 287.968 282.84L286.678 283.054Z" fill="#0F0C3D"/>
<path d="M321.039 116.836L280.963 138.26L281.58 139.413L321.656 117.989L321.039 116.836Z" fill="#0F0C3D"/>
<path d="M239.285 127.568L238.668 128.721L278.738 150.155L279.355 149.002L239.285 127.568Z" fill="#0F0C3D"/>
</g>
<defs>
<clipPath id="clip0">
<rect width="338" height="269" fill="white"/>
</clipPath>
</defs>
</svg>
